<svg xmlns="http://www.w3.org/2000/svg" viewBox="0 0 1800 250"><defs><style type="text/css">.a{fill:#32373c}</style></defs><path class="a" d="M814.2 62.1h-91.4v9.7c28.6 0 33.2 6.2 33.2 42.4v65.4c0 36.3-4.6 43-33.2 43-22-3.1-36.8-14.9-57.2-37.3L642 159.7c31.6-5.6 48.5-25.5 48.5-48 0-28.1-24-49.6-69-49.6h-89.9v9.7c28.6 0 33.2 6.2 33.2 42.4v65.4c0 36.3-4.6 43-33.2 43v9.6h101.7v-9.7c-28.6 0-33.2-6.6-33.2-42.9v-18.4h8.7l56.7 71h148.6c73 0 104.7-38.8 104.7-85.3s-31.6-84.8-104.7-84.8zm-214 83.3v-68h21c22.9 0 33.1 15.9 33.1 34.3 0 17.9-10.2 33.7-33.2 33.7zm215.5 71h-3.5c-18.4 0-21-4.6-21-28v-111h24.5c53.2 0 62.9 38.9 62.9 69 0 31.2-9.7 70-62.9 70zM247.2 164.3l35.2-104.2c10.3-30.1 5.7-38.8-27-38.8V11h96v10.2c-32.2 0-39.8 7.6-52.6 45l-58.3 174.6H234L181.8 81l-53.1 160H122L65.3 66.1c-12.2-37.3-20.4-45-50-45V11.2h113.4v10.2c-30.2 0-38.3 7.1-27.6 38.8l34.2 104.2L187 11.1h9.7zM420.9 238.9c-56.2 0-102.2-41.4-102.2-92 0-50 46-91.4 102.2-91.4S523 96.9 523 146.9c0 50.6-46 92-102.1 92zm0-167.6c-47 0-63.4 42.4-63.4 75.6 0 33.8 16.4 75.7 63.4 75.7 47.5 0 63.8-42 63.8-75.7 0-33.2-16.3-75.6-63.8-75.6zM1045.1 222v10.3h-117V222c34.3 0 40.4-8.6 40.4-59.7V80.5c0-51-6.1-59.2-40.4-59.2V11H1034c52.6 0 81.7 27 81.7 63.3 0 35.3-29.1 62.8-81.7 62.8h-29.2v25c0 51.2 6.2 59.8 40.4 59.8zM1034 29.4h-29.2v89h29.2c28.6 0 41.9-20 41.9-44 0-24.5-13.3-45-42-45zM1466.5 184.2l-2.5 9.2c-4.6 16.9-10.2 23-46.5 23h-7.1c-26.6 0-31.2-6.1-31.2-42.4v-23.5c39.8 0 43 3.6 43 30.2h9.6v-76.2h-9.7c0 26.6-3 30.2-42.9 30.2V77.5h28c36.4 0 42 6.1 46.6 23l2.5 9.7h8.2l-3.6-48h-150.2v9.6c28.6 0 33.2 6.2 33.2 42.4v65.4c0 33.2-3.9 41.6-26.4 42.8-21.5-3.3-36.2-15-56.3-37.1l-23.5-25.6c31.7-5.6 48.5-25.5 48.5-48 0-28.1-24-49.6-69-49.6h-89.8v9.7c28.6 0 33.2 6.2 33.2 42.4v65.4c0 36.3-4.6 43-33.2 43v9.6H1229v-9.7c-28.6 0-33.2-6.6-33.2-42.9v-18.4h8.7l56.7 71h210l3-48zm-270.7-38.8v-68h21c23 0 33.2 15.9 33.2 34.3 0 17.9-10.3 33.7-33.2 33.7zM1570.3 238.9a75.5 75.5 0 0 1-46-17.4 36.7 36.7 0 0 0-8.2 17.4h-9.7v-70.5h10.2c4.1 33.7 27.6 53.6 57.7 53.6 16.4 0 29.7-9.2 29.7-24.5 0-13.3-11.8-23.5-32.7-33.2l-29.1-13.8c-20.5-9.7-35.8-26.5-35.8-49 0-24.5 23-45.5 54.7-45.5a64 64 0 0 1 39.8 13.3c2.6-2 5.1-7.7 6.6-13.8h9.7v60.3h-10.7c-3.6-24-16.8-44-44-44-14.2 0-27.5 8.2-27.5 21 0 13.3 10.7 20.4 35.2 31.7l28.1 13.8c24.6 11.7 34.3 30.6 34.3 46 0 32.1-28.1 54.6-62.3 54.6zM1724.7 238.9a75.6 75.6 0 0 1-46-17.4 36.7 36.7 0 0 0-8.1 17.4h-9.7v-70.5h10.2c4 33.7 27.6 53.6 57.7 53.6 16.3 0 29.6-9.2 29.6-24.5 0-13.3-11.7-23.5-32.7-33.2l-29-13.8c-20.5-9.7-35.8-26.5-35.8-49 0-24.5 23-45.5 54.6-45.5a64 64 0 0 1 39.9 13.3c2.5-2 5-7.7 6.6-13.8h9.7v60.3H1761c-3.6-24-16.9-44-44-44-14.3 0-27.5 8.2-27.5 21 0 13.3 10.7 20.4 35.2 31.7l28.1 13.8c24.5 11.7 34.2 30.6 34.2 46 0 32.1-28 54.6-62.3 54.6z"/></svg>